<mxfile host="Electron" agent="Mozilla/5.0 (Windows NT 10.0; Win64; x64) AppleWebKit/537.36 (KHTML, like Gecko) draw.io/24.7.17 Chrome/128.0.6613.36 Electron/32.0.1 Safari/537.36" version="24.7.17">
  <diagram name="Page-1" id="W8P2e8QXl9jIIrar-pqP">
    <mxGraphModel dx="521" dy="613" grid="1" gridSize="10" guides="1" tooltips="1" connect="1" arrows="1" fold="1" page="1" pageScale="1" pageWidth="850" pageHeight="1100" math="0" shadow="0">
      <root>
        <mxCell id="0" />
        <mxCell id="1" parent="0" />
        <mxCell id="U3xS2Xd4ZOhI2V2aKV24-5" value="Moves" style="swimlane;fontStyle=1;align=center;verticalAlign=top;childLayout=stackLayout;horizontal=1;startSize=26;horizontalStack=0;resizeParent=1;resizeParentMax=0;resizeLast=0;collapsible=1;marginBottom=0;whiteSpace=wrap;html=1;" parent="1" vertex="1">
          <mxGeometry x="560" y="220" width="220" height="174" as="geometry" />
        </mxCell>
        <mxCell id="U3xS2Xd4ZOhI2V2aKV24-6" value="~ long: id" style="text;strokeColor=none;fillColor=none;align=left;verticalAlign=top;spacingLeft=4;spacingRight=4;overflow=hidden;rotatable=0;points=[[0,0.5],[1,0.5]];portConstraint=eastwest;whiteSpace=wrap;html=1;" parent="U3xS2Xd4ZOhI2V2aKV24-5" vertex="1">
          <mxGeometry y="26" width="220" height="24" as="geometry" />
        </mxCell>
        <mxCell id="sLbZc5f34y555rs3LQ_W-39" value="~ Integer: row" style="text;strokeColor=none;fillColor=none;align=left;verticalAlign=top;spacingLeft=4;spacingRight=4;overflow=hidden;rotatable=0;points=[[0,0.5],[1,0.5]];portConstraint=eastwest;whiteSpace=wrap;html=1;" parent="U3xS2Xd4ZOhI2V2aKV24-5" vertex="1">
          <mxGeometry y="50" width="220" height="26" as="geometry" />
        </mxCell>
        <mxCell id="sLbZc5f34y555rs3LQ_W-40" value="~ Integer: column" style="text;strokeColor=none;fillColor=none;align=left;verticalAlign=top;spacingLeft=4;spacingRight=4;overflow=hidden;rotatable=0;points=[[0,0.5],[1,0.5]];portConstraint=eastwest;whiteSpace=wrap;html=1;" parent="U3xS2Xd4ZOhI2V2aKV24-5" vertex="1">
          <mxGeometry y="76" width="220" height="26" as="geometry" />
        </mxCell>
        <mxCell id="sKooQpzQe3uHeC6geQbC-13" value="~ int: moveNumber" style="text;strokeColor=none;fillColor=none;align=left;verticalAlign=top;spacingLeft=4;spacingRight=4;overflow=hidden;rotatable=0;points=[[0,0.5],[1,0.5]];portConstraint=eastwest;whiteSpace=wrap;html=1;" parent="U3xS2Xd4ZOhI2V2aKV24-5" vertex="1">
          <mxGeometry y="102" width="220" height="24" as="geometry" />
        </mxCell>
        <mxCell id="sKooQpzQe3uHeC6geQbC-14" value="~ Game: game" style="text;strokeColor=none;fillColor=none;align=left;verticalAlign=top;spacingLeft=4;spacingRight=4;overflow=hidden;rotatable=0;points=[[0,0.5],[1,0.5]];portConstraint=eastwest;whiteSpace=wrap;html=1;" parent="U3xS2Xd4ZOhI2V2aKV24-5" vertex="1">
          <mxGeometry y="126" width="220" height="24" as="geometry" />
        </mxCell>
        <mxCell id="sKooQpzQe3uHeC6geQbC-15" value="~ User: user" style="text;strokeColor=none;fillColor=none;align=left;verticalAlign=top;spacingLeft=4;spacingRight=4;overflow=hidden;rotatable=0;points=[[0,0.5],[1,0.5]];portConstraint=eastwest;whiteSpace=wrap;html=1;" parent="U3xS2Xd4ZOhI2V2aKV24-5" vertex="1">
          <mxGeometry y="150" width="220" height="24" as="geometry" />
        </mxCell>
        <mxCell id="U3xS2Xd4ZOhI2V2aKV24-9" value="Game" style="swimlane;fontStyle=1;align=center;verticalAlign=top;childLayout=stackLayout;horizontal=1;startSize=26;horizontalStack=0;resizeParent=1;resizeParentMax=0;resizeLast=0;collapsible=1;marginBottom=0;whiteSpace=wrap;html=1;" parent="1" vertex="1">
          <mxGeometry x="315" y="20" width="220" height="260" as="geometry" />
        </mxCell>
        <mxCell id="sLbZc5f34y555rs3LQ_W-17" value="~ Fireman: user" style="text;strokeColor=none;fillColor=none;align=left;verticalAlign=top;spacingLeft=4;spacingRight=4;overflow=hidden;rotatable=0;points=[[0,0.5],[1,0.5]];portConstraint=eastwest;whiteSpace=wrap;html=1;" parent="U3xS2Xd4ZOhI2V2aKV24-9" vertex="1">
          <mxGeometry y="26" width="220" height="26" as="geometry" />
        </mxCell>
        <mxCell id="sLbZc5f34y555rs3LQ_W-16" value="~ Arsonist: user" style="text;strokeColor=none;fillColor=none;align=left;verticalAlign=top;spacingLeft=4;spacingRight=4;overflow=hidden;rotatable=0;points=[[0,0.5],[1,0.5]];portConstraint=eastwest;whiteSpace=wrap;html=1;" parent="U3xS2Xd4ZOhI2V2aKV24-9" vertex="1">
          <mxGeometry y="52" width="220" height="26" as="geometry" />
        </mxCell>
        <mxCell id="sLbZc5f34y555rs3LQ_W-57" value="~ List&amp;lt;Moves&amp;gt;" style="text;strokeColor=none;fillColor=none;align=left;verticalAlign=top;spacingLeft=4;spacingRight=4;overflow=hidden;rotatable=0;points=[[0,0.5],[1,0.5]];portConstraint=eastwest;whiteSpace=wrap;html=1;" parent="U3xS2Xd4ZOhI2V2aKV24-9" vertex="1">
          <mxGeometry y="78" width="220" height="26" as="geometry" />
        </mxCell>
        <mxCell id="sLbZc5f34y555rs3LQ_W-64" value="~ WInd: enum (read-only)" style="text;strokeColor=none;fillColor=none;align=left;verticalAlign=top;spacingLeft=4;spacingRight=4;overflow=hidden;rotatable=0;points=[[0,0.5],[1,0.5]];portConstraint=eastwest;whiteSpace=wrap;html=1;" parent="U3xS2Xd4ZOhI2V2aKV24-9" vertex="1">
          <mxGeometry y="104" width="220" height="26" as="geometry" />
        </mxCell>
        <mxCell id="sKooQpzQe3uHeC6geQbC-11" value="~ List&amp;lt;Plot&amp;gt; plots" style="text;strokeColor=none;fillColor=none;align=left;verticalAlign=top;spacingLeft=4;spacingRight=4;overflow=hidden;rotatable=0;points=[[0,0.5],[1,0.5]];portConstraint=eastwest;whiteSpace=wrap;html=1;" parent="U3xS2Xd4ZOhI2V2aKV24-9" vertex="1">
          <mxGeometry y="130" width="220" height="26" as="geometry" />
        </mxCell>
        <mxCell id="sKooQpzQe3uHeC6geQbC-16" value="~ boolean: firemansTurn" style="text;strokeColor=none;fillColor=none;align=left;verticalAlign=top;spacingLeft=4;spacingRight=4;overflow=hidden;rotatable=0;points=[[0,0.5],[1,0.5]];portConstraint=eastwest;whiteSpace=wrap;html=1;" parent="U3xS2Xd4ZOhI2V2aKV24-9" vertex="1">
          <mxGeometry y="156" width="220" height="26" as="geometry" />
        </mxCell>
        <mxCell id="sKooQpzQe3uHeC6geQbC-17" value="~ Instant: started" style="text;strokeColor=none;fillColor=none;align=left;verticalAlign=top;spacingLeft=4;spacingRight=4;overflow=hidden;rotatable=0;points=[[0,0.5],[1,0.5]];portConstraint=eastwest;whiteSpace=wrap;html=1;" parent="U3xS2Xd4ZOhI2V2aKV24-9" vertex="1">
          <mxGeometry y="182" width="220" height="26" as="geometry" />
        </mxCell>
        <mxCell id="sKooQpzQe3uHeC6geQbC-12" value="~ Instant: finished" style="text;strokeColor=none;fillColor=none;align=left;verticalAlign=top;spacingLeft=4;spacingRight=4;overflow=hidden;rotatable=0;points=[[0,0.5],[1,0.5]];portConstraint=eastwest;whiteSpace=wrap;html=1;" parent="U3xS2Xd4ZOhI2V2aKV24-9" vertex="1">
          <mxGeometry y="208" width="220" height="26" as="geometry" />
        </mxCell>
        <mxCell id="sKooQpzQe3uHeC6geQbC-18" value="~ int: score" style="text;strokeColor=none;fillColor=none;align=left;verticalAlign=top;spacingLeft=4;spacingRight=4;overflow=hidden;rotatable=0;points=[[0,0.5],[1,0.5]];portConstraint=eastwest;whiteSpace=wrap;html=1;" parent="U3xS2Xd4ZOhI2V2aKV24-9" vertex="1">
          <mxGeometry y="234" width="220" height="26" as="geometry" />
        </mxCell>
        <mxCell id="U3xS2Xd4ZOhI2V2aKV24-13" value="Board" style="swimlane;fontStyle=1;align=center;verticalAlign=top;childLayout=stackLayout;horizontal=1;startSize=26;horizontalStack=0;resizeParent=1;resizeParentMax=0;resizeLast=0;collapsible=1;marginBottom=0;whiteSpace=wrap;html=1;" parent="1" vertex="1">
          <mxGeometry x="80" y="260" width="220" height="164" as="geometry" />
        </mxCell>
        <mxCell id="U3xS2Xd4ZOhI2V2aKV24-14" value="~Size: int (write-only)" style="text;strokeColor=none;fillColor=none;align=left;verticalAlign=top;spacingLeft=4;spacingRight=4;overflow=hidden;rotatable=0;points=[[0,0.5],[1,0.5]];portConstraint=eastwest;whiteSpace=wrap;html=1;" parent="U3xS2Xd4ZOhI2V2aKV24-13" vertex="1">
          <mxGeometry y="26" width="220" height="26" as="geometry" />
        </mxCell>
        <mxCell id="sLbZc5f34y555rs3LQ_W-9" value="~Plots: List&amp;lt;plot&amp;gt; (read-only)" style="text;strokeColor=none;fillColor=none;align=left;verticalAlign=top;spacingLeft=4;spacingRight=4;overflow=hidden;rotatable=0;points=[[0,0.5],[1,0.5]];portConstraint=eastwest;whiteSpace=wrap;html=1;" parent="U3xS2Xd4ZOhI2V2aKV24-13" vertex="1">
          <mxGeometry y="52" width="220" height="26" as="geometry" />
        </mxCell>
        <mxCell id="sLbZc5f34y555rs3LQ_W-14" value="+Wind: enum(read-only)" style="text;strokeColor=none;fillColor=none;align=left;verticalAlign=top;spacingLeft=4;spacingRight=4;overflow=hidden;rotatable=0;points=[[0,0.5],[1,0.5]];portConstraint=eastwest;whiteSpace=wrap;html=1;" parent="U3xS2Xd4ZOhI2V2aKV24-13" vertex="1">
          <mxGeometry y="78" width="220" height="26" as="geometry" />
        </mxCell>
        <mxCell id="U3xS2Xd4ZOhI2V2aKV24-15" value="" style="line;strokeWidth=1;fillColor=none;align=left;verticalAlign=middle;spacingTop=-1;spacingLeft=3;spacingRight=3;rotatable=0;labelPosition=right;points=[];portConstraint=eastwest;strokeColor=inherit;" parent="U3xS2Xd4ZOhI2V2aKV24-13" vertex="1">
          <mxGeometry y="104" width="220" height="8" as="geometry" />
        </mxCell>
        <mxCell id="sLbZc5f34y555rs3LQ_W-34" value="IsFInished: boolean" style="text;strokeColor=none;fillColor=none;align=left;verticalAlign=top;spacingLeft=4;spacingRight=4;overflow=hidden;rotatable=0;points=[[0,0.5],[1,0.5]];portConstraint=eastwest;whiteSpace=wrap;html=1;" parent="U3xS2Xd4ZOhI2V2aKV24-13" vertex="1">
          <mxGeometry y="112" width="220" height="26" as="geometry" />
        </mxCell>
        <mxCell id="U3xS2Xd4ZOhI2V2aKV24-29" value="AdjacentTo: boolean" style="text;strokeColor=none;fillColor=none;align=left;verticalAlign=top;spacingLeft=4;spacingRight=4;overflow=hidden;rotatable=0;points=[[0,0.5],[1,0.5]];portConstraint=eastwest;whiteSpace=wrap;html=1;" parent="U3xS2Xd4ZOhI2V2aKV24-13" vertex="1">
          <mxGeometry y="138" width="220" height="26" as="geometry" />
        </mxCell>
        <mxCell id="U3xS2Xd4ZOhI2V2aKV24-17" value="Plot" style="swimlane;fontStyle=1;align=center;verticalAlign=top;childLayout=stackLayout;horizontal=1;startSize=26;horizontalStack=0;resizeParent=1;resizeParentMax=0;resizeLast=0;collapsible=1;marginBottom=0;whiteSpace=wrap;html=1;" parent="1" vertex="1">
          <mxGeometry x="90" y="510" width="220" height="130" as="geometry" />
        </mxCell>
        <mxCell id="sLbZc5f34y555rs3LQ_W-13" value="~ int: row" style="text;strokeColor=none;fillColor=none;align=left;verticalAlign=top;spacingLeft=4;spacingRight=4;overflow=hidden;rotatable=0;points=[[0,0.5],[1,0.5]];portConstraint=eastwest;whiteSpace=wrap;html=1;" parent="U3xS2Xd4ZOhI2V2aKV24-17" vertex="1">
          <mxGeometry y="26" width="220" height="26" as="geometry" />
        </mxCell>
        <mxCell id="U3xS2Xd4ZOhI2V2aKV24-18" value="~ int: column" style="text;strokeColor=none;fillColor=none;align=left;verticalAlign=top;spacingLeft=4;spacingRight=4;overflow=hidden;rotatable=0;points=[[0,0.5],[1,0.5]];portConstraint=eastwest;whiteSpace=wrap;html=1;" parent="U3xS2Xd4ZOhI2V2aKV24-17" vertex="1">
          <mxGeometry y="52" width="220" height="26" as="geometry" />
        </mxCell>
        <mxCell id="sLbZc5f34y555rs3LQ_W-11" value="~ PlotState: plotState" style="text;strokeColor=none;fillColor=none;align=left;verticalAlign=top;spacingLeft=4;spacingRight=4;overflow=hidden;rotatable=0;points=[[0,0.5],[1,0.5]];portConstraint=eastwest;whiteSpace=wrap;html=1;" parent="U3xS2Xd4ZOhI2V2aKV24-17" vertex="1">
          <mxGeometry y="78" width="220" height="26" as="geometry" />
        </mxCell>
        <mxCell id="sLbZc5f34y555rs3LQ_W-19" value="~ Game: game" style="text;strokeColor=none;fillColor=none;align=left;verticalAlign=top;spacingLeft=4;spacingRight=4;overflow=hidden;rotatable=0;points=[[0,0.5],[1,0.5]];portConstraint=eastwest;whiteSpace=wrap;html=1;" parent="U3xS2Xd4ZOhI2V2aKV24-17" vertex="1">
          <mxGeometry y="104" width="220" height="26" as="geometry" />
        </mxCell>
        <mxCell id="sLbZc5f34y555rs3LQ_W-66" value="" style="endArrow=open;html=1;rounded=0;startArrow=diamondThin;startFill=0;strokeWidth=2;targetPerimeterSpacing=0;endSize=20;startSize=20;endFill=0;" parent="1" source="U3xS2Xd4ZOhI2V2aKV24-29" target="U3xS2Xd4ZOhI2V2aKV24-17" edge="1">
          <mxGeometry width="50" height="50" relative="1" as="geometry">
            <mxPoint x="220" y="404" as="sourcePoint" />
            <mxPoint x="219" y="550" as="targetPoint" />
          </mxGeometry>
        </mxCell>
        <mxCell id="sLbZc5f34y555rs3LQ_W-67" value="&amp;lt;&amp;lt;enumeration&amp;gt;&amp;gt;&lt;div&gt;WindTypes&lt;/div&gt;" style="swimlane;fontStyle=1;align=center;verticalAlign=top;childLayout=stackLayout;horizontal=1;startSize=40;horizontalStack=0;resizeParent=1;resizeParentMax=0;resizeLast=0;collapsible=1;marginBottom=0;whiteSpace=wrap;html=1;" parent="1" vertex="1">
          <mxGeometry x="560" y="450" width="220" height="144" as="geometry">
            <mxRectangle x="560" y="500" width="140" height="40" as="alternateBounds" />
          </mxGeometry>
        </mxCell>
        <mxCell id="sLbZc5f34y555rs3LQ_W-68" value="North" style="text;strokeColor=none;fillColor=none;align=left;verticalAlign=top;spacingLeft=4;spacingRight=4;overflow=hidden;rotatable=0;points=[[0,0.5],[1,0.5]];portConstraint=eastwest;whiteSpace=wrap;html=1;" parent="sLbZc5f34y555rs3LQ_W-67" vertex="1">
          <mxGeometry y="40" width="220" height="26" as="geometry" />
        </mxCell>
        <mxCell id="sLbZc5f34y555rs3LQ_W-73" value="South" style="text;strokeColor=none;fillColor=none;align=left;verticalAlign=top;spacingLeft=4;spacingRight=4;overflow=hidden;rotatable=0;points=[[0,0.5],[1,0.5]];portConstraint=eastwest;whiteSpace=wrap;html=1;" parent="sLbZc5f34y555rs3LQ_W-67" vertex="1">
          <mxGeometry y="66" width="220" height="26" as="geometry" />
        </mxCell>
        <mxCell id="sLbZc5f34y555rs3LQ_W-72" value="East" style="text;strokeColor=none;fillColor=none;align=left;verticalAlign=top;spacingLeft=4;spacingRight=4;overflow=hidden;rotatable=0;points=[[0,0.5],[1,0.5]];portConstraint=eastwest;whiteSpace=wrap;html=1;" parent="sLbZc5f34y555rs3LQ_W-67" vertex="1">
          <mxGeometry y="92" width="220" height="26" as="geometry" />
        </mxCell>
        <mxCell id="sLbZc5f34y555rs3LQ_W-69" value="West" style="text;strokeColor=none;fillColor=none;align=left;verticalAlign=top;spacingLeft=4;spacingRight=4;overflow=hidden;rotatable=0;points=[[0,0.5],[1,0.5]];portConstraint=eastwest;whiteSpace=wrap;html=1;" parent="sLbZc5f34y555rs3LQ_W-67" vertex="1">
          <mxGeometry y="118" width="220" height="26" as="geometry" />
        </mxCell>
        <mxCell id="sLbZc5f34y555rs3LQ_W-75" value="" style="endArrow=open;html=1;rounded=0;exitX=0;exitY=0.5;exitDx=0;exitDy=0;startArrow=diamondThin;startFill=0;strokeWidth=2;targetPerimeterSpacing=0;endSize=20;startSize=20;endFill=0;entryX=0.5;entryY=0;entryDx=0;entryDy=0;" parent="1" source="sLbZc5f34y555rs3LQ_W-57" target="U3xS2Xd4ZOhI2V2aKV24-13" edge="1">
          <mxGeometry width="50" height="50" relative="1" as="geometry">
            <mxPoint x="221" y="94" as="sourcePoint" />
            <mxPoint x="220" y="240" as="targetPoint" />
          </mxGeometry>
        </mxCell>
        <mxCell id="sLbZc5f34y555rs3LQ_W-76" value="" style="endArrow=open;html=1;rounded=0;exitX=1;exitY=0.5;exitDx=0;exitDy=0;startArrow=diamondThin;startFill=0;strokeWidth=2;targetPerimeterSpacing=0;endSize=20;startSize=20;endFill=0;entryX=0.5;entryY=0;entryDx=0;entryDy=0;" parent="1" source="sLbZc5f34y555rs3LQ_W-16" target="U3xS2Xd4ZOhI2V2aKV24-5" edge="1">
          <mxGeometry width="50" height="50" relative="1" as="geometry">
            <mxPoint x="670.4100000000001" y="44" as="sourcePoint" />
            <mxPoint x="669.4100000000001" y="190" as="targetPoint" />
          </mxGeometry>
        </mxCell>
        <mxCell id="sLbZc5f34y555rs3LQ_W-77" value="" style="endArrow=open;html=1;rounded=0;exitX=1;exitY=0.5;exitDx=0;exitDy=0;startArrow=diamondThin;startFill=1;strokeWidth=2;targetPerimeterSpacing=0;endSize=20;startSize=20;endFill=0;entryX=0.449;entryY=0.009;entryDx=0;entryDy=0;entryPerimeter=0;" parent="1" source="sLbZc5f34y555rs3LQ_W-9" target="sLbZc5f34y555rs3LQ_W-67" edge="1">
          <mxGeometry width="50" height="50" relative="1" as="geometry">
            <mxPoint x="341" y="310" as="sourcePoint" />
            <mxPoint x="340" y="456" as="targetPoint" />
          </mxGeometry>
        </mxCell>
        <mxCell id="sLbZc5f34y555rs3LQ_W-79" value="Each instance of Bo&lt;b&gt;ard&amp;nbsp;&lt;/b&gt;&amp;nbsp;will use one of the four types of&amp;nbsp;&lt;b&gt;&amp;nbsp;Wind&lt;/b&gt;&amp;nbsp;" style="whiteSpace=wrap;html=1;fillColor=none;strokeColor=none;" parent="1" vertex="1">
          <mxGeometry x="390" y="400" width="120" height="60" as="geometry" />
        </mxCell>
        <mxCell id="sLbZc5f34y555rs3LQ_W-80" value="Each &lt;b&gt;Game consists of &lt;/b&gt;Moves when a Game is created&lt;span style=&quot;color: rgba(0, 0, 0, 0); font-family: monospace; font-size: 0px; text-align: start; text-wrap-mode: nowrap;&quot;&gt;%3CmxGraphModel%3E%3Croot%3E%3CmxCell%20id%3D%220%22%2F%3E%3CmxCell%20id%3D%221%22%20parent%3D%220%22%2F%3E%3CmxCell%20id%3D%222%22%20value%3D%22%22%20style%3D%22endArrow%3Dopen%3Bhtml%3D1%3Brounded%3D0%3BexitX%3D1%3BexitY%3D0.5%3BexitDx%3D0%3BexitDy%3D0%3BstartArrow%3DdiamondThin%3BstartFill%3D0%3BstrokeWidth%3D2%3BtargetPerimeterSpacing%3D0%3BendSize%3D20%3BstartSize%3D20%3BendFill%3D0%3B%22%20edge%3D%221%22%20parent%3D%221%22%3E%3CmxGeometry%20width%3D%2250%22%20height%3D%2250%22%20relative%3D%221%22%20as%3D%22geometry%22%3E%3CmxPoint%20x%3D%22220%22%20y%3D%22404%22%20as%3D%22sourcePoint%22%2F%3E%3CmxPoint%20x%3D%22219%22%20y%3D%22550%22%20as%3D%22targetPoint%22%2F%3E%3C%2FmxGeometry%3E%3C%2FmxCell%3E%3C%2Froot%3E%3C%2FmxGraphModel%3E&lt;b&gt;Moves&lt;/b&gt;&lt;/span&gt;" style="whiteSpace=wrap;html=1;strokeColor=none;fillColor=none;" parent="1" vertex="1">
          <mxGeometry x="630" y="130" width="120" height="60" as="geometry" />
        </mxCell>
        <mxCell id="sLbZc5f34y555rs3LQ_W-82" value="Each &lt;b&gt;Game consists of a Board&lt;/b&gt;&amp;nbsp;when a Game is created&lt;span style=&quot;color: rgba(0, 0, 0, 0); font-family: monospace; font-size: 0px; text-align: start; text-wrap-mode: nowrap;&quot;&gt;%3CmxGraphModel%3E%3Croot%3E%3CmxCell%20id%3D%220%22%2F%3E%3CmxCell%20id%3D%221%22%20parent%3D%220%22%2F%3E%3CmxCell%20id%3D%222%22%20value%3D%22%22%20style%3D%22endArrow%3Dopen%3Bhtml%3D1%3Brounded%3D0%3BexitX%3D1%3BexitY%3D0.5%3BexitDx%3D0%3BexitDy%3D0%3BstartArrow%3DdiamondThin%3BstartFill%3D0%3BstrokeWidth%3D2%3BtargetPerimeterSpacing%3D0%3BendSize%3D20%3BstartSize%3D20%3BendFill%3D0%3B%22%20edge%3D%221%22%20parent%3D%221%22%3E%3CmxGeometry%20width%3D%2250%22%20height%3D%2250%22%20relative%3D%221%22%20as%3D%22geometry%22%3E%3CmxPoint%20x%3D%22220%22%20y%3D%22404%22%20as%3D%22sourcePoint%22%2F%3E%3CmxPoint%20x%3D%22219%22%20y%3D%22550%22%20as%3D%22targetPoint%22%2F%3E%3C%2FmxGeometry%3E%3C%2FmxCell%3E%3C%2Froot%3E%3C%2FmxGraphModel%3E&lt;b&gt;Moves&lt;/b&gt;&lt;/span&gt;" style="whiteSpace=wrap;html=1;strokeColor=none;fillColor=none;" parent="1" vertex="1">
          <mxGeometry x="110" y="130" width="120" height="60" as="geometry" />
        </mxCell>
        <mxCell id="sLbZc5f34y555rs3LQ_W-83" value="Each Board&lt;b&gt;&amp;nbsp;consists of many Plots&lt;/b&gt;&amp;nbsp;when a Board is created&lt;span style=&quot;color: rgba(0, 0, 0, 0); font-family: monospace; font-size: 0px; text-align: start; text-wrap-mode: nowrap;&quot;&gt;%3CmxGraphModel%3E%3Croot%3E%3CmxCell%20id%3D%220%22%2F%3E%3CmxCell%20id%3D%221%22%20parent%3D%220%22%2F%3E%3CmxCell%20id%3D%222%22%20value%3D%22%22%20style%3D%22endArrow%3Dopen%3Bhtml%3D1%3Brounded%3D0%3BexitX%3D1%3BexitY%3D0.5%3BexitDx%3D0%3BexitDy%3D0%3BstartArrow%3DdiamondThin%3BstartFill%3D0%3BstrokeWidth%3D2%3BtargetPerimeterSpacing%3D0%3BendSize%3D20%3BstartSize%3D20%3BendFill%3D0%3B%22%20edge%3D%221%22%20parent%3D%221%22%3E%3CmxGeometry%20width%3D%2250%22%20height%3D%2250%22%20relative%3D%221%22%20as%3D%22geometry%22%3E%3CmxPoint%20x%3D%22220%22%20y%3D%22404%22%20as%3D%22sourcePoint%22%2F%3E%3CmxPoint%20x%3D%22219%22%20y%3D%22550%22%20as%3D%22targetPoint%22%2F%3E%3C%2FmxGeometry%3E%3C%2FmxCell%3E%3C%2Froot%3E%3C%2FmxGraphModel%3E&lt;b&gt;Moves&lt;/b&gt;&lt;/span&gt;" style="whiteSpace=wrap;html=1;strokeColor=none;fillColor=none;" parent="1" vertex="1">
          <mxGeometry x="70" y="430" width="120" height="60" as="geometry" />
        </mxCell>
        <mxCell id="sKooQpzQe3uHeC6geQbC-1" value="&lt;div&gt;&amp;lt;&amp;lt;enumeration&amp;gt;&amp;gt;&lt;/div&gt;PlotState" style="swimlane;fontStyle=1;align=center;verticalAlign=top;childLayout=stackLayout;horizontal=1;startSize=40;horizontalStack=0;resizeParent=1;resizeParentMax=0;resizeLast=0;collapsible=1;marginBottom=0;whiteSpace=wrap;html=1;" parent="1" vertex="1">
          <mxGeometry x="330" y="610" width="220" height="242" as="geometry">
            <mxRectangle x="590" y="640" width="130" height="40" as="alternateBounds" />
          </mxGeometry>
        </mxCell>
        <mxCell id="sKooQpzQe3uHeC6geQbC-2" value="BURNABLE" style="text;strokeColor=none;fillColor=none;align=left;verticalAlign=top;spacingLeft=4;spacingRight=4;overflow=hidden;rotatable=0;points=[[0,0.5],[1,0.5]];portConstraint=eastwest;whiteSpace=wrap;html=1;" parent="sKooQpzQe3uHeC6geQbC-1" vertex="1">
          <mxGeometry y="40" width="220" height="24" as="geometry" />
        </mxCell>
        <mxCell id="sKooQpzQe3uHeC6geQbC-4" value="ON FIRE" style="text;strokeColor=none;fillColor=none;align=left;verticalAlign=top;spacingLeft=4;spacingRight=4;overflow=hidden;rotatable=0;points=[[0,0.5],[1,0.5]];portConstraint=eastwest;whiteSpace=wrap;html=1;" parent="sKooQpzQe3uHeC6geQbC-1" vertex="1">
          <mxGeometry y="64" width="220" height="26" as="geometry" />
        </mxCell>
        <mxCell id="sKooQpzQe3uHeC6geQbC-5" value="CHARRED" style="text;strokeColor=none;fillColor=none;align=left;verticalAlign=top;spacingLeft=4;spacingRight=4;overflow=hidden;rotatable=0;points=[[0,0.5],[1,0.5]];portConstraint=eastwest;whiteSpace=wrap;html=1;" parent="sKooQpzQe3uHeC6geQbC-1" vertex="1">
          <mxGeometry y="90" width="220" height="24" as="geometry" />
        </mxCell>
        <mxCell id="sKooQpzQe3uHeC6geQbC-6" value="WET" style="text;strokeColor=none;fillColor=none;align=left;verticalAlign=top;spacingLeft=4;spacingRight=4;overflow=hidden;rotatable=0;points=[[0,0.5],[1,0.5]];portConstraint=eastwest;whiteSpace=wrap;html=1;" parent="sKooQpzQe3uHeC6geQbC-1" vertex="1">
          <mxGeometry y="114" width="220" height="24" as="geometry" />
        </mxCell>
        <mxCell id="sKooQpzQe3uHeC6geQbC-7" value="SOAKED" style="text;strokeColor=none;fillColor=none;align=left;verticalAlign=top;spacingLeft=4;spacingRight=4;overflow=hidden;rotatable=0;points=[[0,0.5],[1,0.5]];portConstraint=eastwest;whiteSpace=wrap;html=1;" parent="sKooQpzQe3uHeC6geQbC-1" vertex="1">
          <mxGeometry y="138" width="220" height="24" as="geometry" />
        </mxCell>
        <mxCell id="sKooQpzQe3uHeC6geQbC-8" value="UNBURNABLE" style="text;strokeColor=none;fillColor=none;align=left;verticalAlign=top;spacingLeft=4;spacingRight=4;overflow=hidden;rotatable=0;points=[[0,0.5],[1,0.5]];portConstraint=eastwest;whiteSpace=wrap;html=1;" parent="sKooQpzQe3uHeC6geQbC-1" vertex="1">
          <mxGeometry y="162" width="220" height="24" as="geometry" />
        </mxCell>
        <mxCell id="sKooQpzQe3uHeC6geQbC-3" value="" style="line;strokeWidth=1;fillColor=none;align=left;verticalAlign=middle;spacingTop=-1;spacingLeft=3;spacingRight=3;rotatable=0;labelPosition=right;points=[];portConstraint=eastwest;strokeColor=inherit;" parent="sKooQpzQe3uHeC6geQbC-1" vertex="1">
          <mxGeometry y="186" width="220" height="8" as="geometry" />
        </mxCell>
        <mxCell id="sKooQpzQe3uHeC6geQbC-9" value="+ boolean: nextState(firemanMove)" style="text;strokeColor=none;fillColor=none;align=left;verticalAlign=top;spacingLeft=4;spacingRight=4;overflow=hidden;rotatable=0;points=[[0,0.5],[1,0.5]];portConstraint=eastwest;whiteSpace=wrap;html=1;" parent="sKooQpzQe3uHeC6geQbC-1" vertex="1">
          <mxGeometry y="194" width="220" height="24" as="geometry" />
        </mxCell>
        <mxCell id="sKooQpzQe3uHeC6geQbC-10" value="+ boolean: nextStateSpread()" style="text;strokeColor=none;fillColor=none;align=left;verticalAlign=top;spacingLeft=4;spacingRight=4;overflow=hidden;rotatable=0;points=[[0,0.5],[1,0.5]];portConstraint=eastwest;whiteSpace=wrap;html=1;" parent="sKooQpzQe3uHeC6geQbC-1" vertex="1">
          <mxGeometry y="218" width="220" height="24" as="geometry" />
        </mxCell>
      </root>
    </mxGraphModel>
  </diagram>
</mxfile>
